<svg width="24" height="24" viewBox="0 0 24 24" xmlns="http://www.w3.org/2000/svg">
  <path 
    fill="white"
    fill-rule="evenodd" 
    clip-rule="evenodd" 
    d="M12 6.00019
    C10.2006 3.90317 7.19377 3.2551 4.93923 5.17534
    C2.68468 7.09558 2.36727 10.3061 4.13778 12.5772
    C5.60984 14.4654 10.0648 18.4479 11.5249 19.7369
    C11.6882 19.8811 11.7699 19.9532 11.8652 19.9815
    C11.9483 20.0062 12.0393 20.0062 12.1225 19.9815
    C12.2178 19.9532 12.2994 19.8811 12.4628 19.7369
    C13.9229 18.4479 18.3778 14.4654 19.8499 12.5772
    C21.6204 10.3061 21.3417 7.07538 19.0484 5.17534
    C16.7551 3.2753 13.7994 3.90317 12 6.00019Z"/>

  <style>
    #grid-layer { display: none; }
    @media (min-width: 100px) {
      #grid-layer { display: block; opacity: 0.3; }
    }
  </style>

  <g id="grid-layer">
    <defs>
      <pattern id="grid" width="2" height="2" patternUnits="userSpaceOnUse">
        <path d="M 2 0 L 0 0 0 2" fill="none" stroke="gray" stroke-width="0.05"/>
      </pattern>
    </defs>
    <rect width="24" height="24" fill="url(#grid)" pointer-events="none" />
  </g>
</svg>
