<svg width="648" height="460" viewBox="0 0 648 460" fill="none" xmlns="http://www.w3.org/2000/svg">
<rect y="396" width="648" height="64" rx="16" fill="black"/>
<path d="M112 364C112 372.837 104.837 380 96 380H56C47.1634 380 40 372.837 40 364V164H112V364ZM96 108C104.837 108 112 115.163 112 124V156H40V124C40 115.163 47.1634 108 56 108H96Z" fill="black"/>
<path d="M224 364C224 372.837 216.837 380 208 380H144C135.163 380 128 372.837 128 364V332H224V364ZM160 78C160 78.7749 160.358 79.4798 160.919 79.8096C161.48 80.1391 162.144 80.0345 162.621 79.54L174.635 69.0967L174.689 69.042C175.266 68.4961 176.069 68.5003 176.643 69.0625L189.413 79.5742C189.895 80.0461 190.55 80.1327 191.101 79.7979C191.651 79.4629 192 78.7651 192 78V0H208C216.837 1.03081e-06 224 7.16344 224 16V324H128V16C128 7.16344 135.163 2.57703e-07 144 0H160V78Z" fill="black"/>
<path d="M448 154.048C496.783 153.907 509.033 154.048 514.172 154.896C552.467 160.97 584.145 190.703 593.648 229.478C595.69 237.813 606.601 315.643 607.868 330.828C608.854 342.976 604.278 355.688 595.408 365.223C581.4 380.266 561.928 384.023 543.175 374.688C524.421 365.352 509.508 331.216 509.508 331.216L495.657 301.023H448V301.258H400.343L386.492 331.451C386.457 331.531 371.557 365.597 352.825 374.922C334.072 384.258 314.6 380.502 300.592 365.458C291.722 355.923 287.146 343.21 288.132 331.062C289.399 315.877 300.31 238.046 302.352 229.712C311.855 190.938 343.533 161.204 381.828 155.13C386.967 154.282 399.216 154.14 448 154.281V154.048ZM376 190C369.373 190 364 195.373 364 202V214H352C345.373 214 340 219.373 340 226C340 232.627 345.373 238 352 238H364V250C364 256.627 369.373 262 376 262C382.627 262 388 256.627 388 250V238H400C406.627 238 412 232.627 412 226C412 219.373 406.627 214 400 214H388V202C388 195.373 382.627 190 376 190ZM520 238C513.373 238 508 243.373 508 250C508 256.627 513.373 262 520 262C526.627 262 532 256.627 532 250C532 243.373 526.627 238 520 238ZM496 214C489.373 214 484 219.373 484 226C484 232.627 489.373 238 496 238C502.627 238 508 232.627 508 226C508 219.373 502.627 214 496 214ZM544 214C537.373 214 532 219.373 532 226C532 232.627 537.373 238 544 238C550.627 238 556 232.627 556 226C556 219.373 550.627 214 544 214ZM520 190C513.373 190 508 195.373 508 202C508 208.627 513.373 214 520 214C526.627 214 532 208.627 532 202C532 195.373 526.627 190 520 190Z" fill="black"/>
<path d="M276.053 332C275.382 347.103 281.241 362.274 291.806 373.631L291.811 373.636C293.988 375.974 296.282 378.097 298.675 380H256C247.163 380 240 372.837 240 364V332H276.053ZM324 170.557C307.953 185.287 296.105 204.791 290.697 226.855L290.696 226.856C289.489 231.785 286.149 254.189 283.068 276.15C280.532 294.231 278.01 313.214 276.793 324H240V124H324V170.557ZM308 68C316.837 68 324 75.1634 324 84V116H240V84C240 75.1634 247.163 68 256 68H308Z" fill="black"/>
</svg>
